<svg xmlns="http://www.w3.org/2000/svg" width="1923.558" height="1080.329" viewBox="0 0 1923.558 1080.329"><path d="M1818.211,1080.329,1661.458,962.208a39.967,39.967,0,0,1-7.872-56.018l269.973-358.267-3.559,5.6.26,526.8Zm-1471.322-.213h0Zm0,0H0V674.74L30.326,634.5a40.244,40.244,0,0,1,6.607-6.89,39.875,39.875,0,0,1,16.361-8.017,40.312,40.312,0,0,1,9.008-1.021,39.822,39.822,0,0,1,24.042,8.056l352.2,265.4a39.966,39.966,0,0,1,7.873,56.018ZM1705.238,232.674a39.932,39.932,0,0,1-11.581-6.066L1393.028.068l.125.049,520.988.363L1749.675,218.735a40.041,40.041,0,0,1-44.437,13.939Zm-1596,0a39.923,39.923,0,0,1-11.581-6.066L0,153.019V.116H317.911L318.5,0,153.674,218.735a40.186,40.186,0,0,1-6.608,6.891,39.893,39.893,0,0,1-16.36,8.017,40.31,40.31,0,0,1-9.008,1.021A39.835,39.835,0,0,1,109.238,232.674Z" fill="#00b9ff" opacity="0.64"/></svg>